<?xml version="1.0" encoding="UTF-8"?>
<!DOCTYPE svg PUBLIC "-//W3C//DTD SVG 1.1//EN" "http://www.w3.org/Graphics/SVG/1.1/DTD/svg11.dtd">
<!-- Creator: CorelDRAW X5 -->
<svg xmlns="http://www.w3.org/2000/svg" xml:space="preserve" width="31.4476mm" height="31.4476mm" style="shape-rendering:geometricPrecision; text-rendering:geometricPrecision; image-rendering:optimizeQuality; fill-rule:evenodd; clip-rule:evenodd"
viewBox="0 0 3145 3145"
 xmlns:xlink="http://www.w3.org/1999/xlink"
 xmlns:svg="http://www.w3.org/2000/svg">
 <defs>
  <style type="text/css">
   <![CDATA[
    .fil3 {fill:#ACCE22}
    .fil0 {fill:#FEFEFE}
    .fil4 {fill:#FFF000}
    .fil2 {fill:#2F318B}
    .fil5 {fill:black}
    .fil1 {fill:black;fill-rule:nonzero}
   ]]>
  </style>
 </defs>
 <g id="Layer_x0020_1">
  <metadata id="CorelCorpID_0Corel-Layer"/>
 </g>
 <g id="svg2">
  <metadata id="CorelCorpID_1Corel-Layer"/>
  <path class="fil0" d="M1572 29c852,0 1543,691 1543,1543 0,852 -691,1543 -1543,1543 -852,0 -1543,-691 -1543,-1543 0,-852 691,-1543 1543,-1543z"/>
  <path class="fil1" d="M1572 0c434,0 827,176 1112,461 285,285 461,678 461,1112 0,434 -176,827 -461,1112 -285,285 -678,461 -1112,461 -434,0 -827,-176 -1112,-461 -285,-285 -461,-678 -461,-1112 0,-434 176,-827 461,-1112 285,-285 678,-461 1112,-461zm1071 502c-274,-274 -652,-443 -1071,-443 -418,0 -797,169 -1071,443 -274,274 -443,652 -443,1071 0,418 169,797 443,1071 274,274 652,443 1071,443 418,0 797,-169 1071,-443 274,-274 443,-652 443,-1071 0,-418 -169,-797 -443,-1071z"/>
  <path class="fil0" d="M1572 118c803,0 1455,651 1455,1455 0,803 -651,1455 -1455,1455 -803,0 -1455,-651 -1455,-1455 0,-803 651,-1455 1455,-1455z"/>
  <path class="fil1" d="M1572 102c406,0 773,165 1039,431 266,266 431,634 431,1039 0,406 -165,773 -431,1039 -266,266 -634,431 -1039,431 -406,0 -773,-165 -1039,-431 -266,-266 -431,-634 -431,-1039 0,-406 165,-773 431,-1039 266,-266 634,-431 1039,-431zm1018 452c-260,-260 -620,-422 -1018,-422 -398,0 -757,161 -1018,422 -260,260 -422,620 -422,1018 0,398 161,757 422,1018 260,260 620,422 1018,422 398,0 757,-161 1018,-422 260,-260 422,-620 422,-1018 0,-398 -161,-757 -422,-1018z"/>
  <path class="fil2" d="M1572 602c536,0 970,434 970,970 0,536 -434,970 -970,970 -536,0 -970,-434 -970,-970 0,-536 434,-970 970,-970zm-319 1388c0,0 -110,286 -13,372 98,85 212,36 242,-4 31,-40 60,-178 60,-178l78 212 121 -2 49 -203 67 181 110 -44 -123 -346 -136 22 -40 183 -71 -176 -137 2 -54 259c0,0 -18,41 -58,35 -40,-5 -38,-45 -35,-63 3,-17 53,-228 53,-228l-114 -24zm206 -1098c0,0 60,16 88,43 24,24 34,48 37,55l0 1 0 -1c3,-7 13,-31 37,-55 28,-28 88,-43 88,-43 -7,-23 -29,-50 -57,-76 -14,-13 -31,-36 -44,-56 -13,-20 -23,-36 -23,-36l-1 -1 -1 1c0,0 -40,65 -68,92 -28,27 -49,53 -57,76zm310 33c0,0 0,86 -43,139 -43,53 -117,71 -117,71 0,0 -42,-224 160,-210zm-371 0c0,0 0,86 43,139 43,53 117,71 117,71 0,0 42,-224 -160,-210zm192 502c0,0 -200,13 -239,194 -39,181 10,280 -116,358 -125,77 -248,22 -265,-31 -17,-53 16,-138 75,-126 59,12 90,73 124,79 34,6 57,-37 55,-110 -2,-73 22,-238 124,-329 97,-86 229,-86 241,-86 12,0 144,0 241,86 102,90 126,256 124,329 -2,73 21,116 55,110 34,-6 65,-66 124,-79 59,-12 92,73 75,126 -17,53 -140,109 -265,31 -125,-77 -77,-176 -116,-358 -39,-181 -238,-194 -238,-194zm-7 37l40 124 130 0 -106 76 41 124 -105 -77 -105 77 41 -124 -106 -76 130 0 40 -124zm468 -556c0,0 60,167 -43,256 -104,89 -306,77 -306,77 0,0 -11,17 7,29 18,12 141,25 207,110 66,85 321,178 382,-64 60,-242 -246,-408 -246,-408zm-935 0c0,0 -60,167 43,256 104,89 306,77 306,77 0,0 11,17 -7,29 -18,12 -141,25 -207,110 -66,85 -321,178 -382,-64 -60,-242 246,-408 246,-408zm467 259c0,0 -199,-44 -225,-169 -27,-126 130,-266 130,-266 0,0 -241,36 -311,186 -70,150 12,213 116,256 104,44 229,39 229,39 0,0 33,79 -10,100 -43,22 -127,-23 -201,58 -75,81 -159,163 -266,164 -107,1 -178,-80 -203,-127 -24,-47 -30,-95 -30,-95 0,0 -127,296 -4,447 123,151 312,13 366,-103 54,-116 135,-238 199,-269 64,-31 102,-4 156,-28 41,-19 52,-29 55,-33 3,4 13,15 55,33 53,24 92,-4 156,28 64,31 145,153 199,269 54,116 244,254 366,103 123,-151 -4,-447 -4,-447 0,0 -6,48 -30,95 -24,47 -95,128 -203,127 -107,-1 -192,-83 -266,-164 -75,-81 -158,-36 -201,-58 -43,-22 -10,-100 -10,-100 0,0 125,5 229,-39 104,-44 186,-106 116,-256 -70,-150 -311,-186 -311,-186 0,0 157,140 130,266 -27,126 -225,169 -225,169z"/>
  <path class="fil3" d="M1583 1167c0,0 -199,-44 -225,-169 -27,-126 130,-266 130,-266 0,0 -241,36 -311,186 -70,150 12,213 116,256 104,44 229,39 229,39 0,0 33,79 -10,100 -43,22 -127,-23 -201,58 -75,81 -159,163 -266,164 -107,1 -178,-80 -203,-127 -24,-47 -30,-95 -30,-95 0,0 -127,296 -4,447 123,151 312,13 366,-103 54,-116 135,-238 199,-269 64,-31 102,-4 156,-28 41,-19 52,-29 55,-33 3,4 13,15 55,33 53,24 92,-4 156,28 64,31 145,153 199,269 54,116 244,254 366,103 123,-151 -4,-447 -4,-447 0,0 -6,48 -30,95 -24,47 -95,128 -203,127 -107,-1 -192,-83 -266,-164 -75,-81 -158,-36 -201,-58 -43,-22 -10,-100 -10,-100 0,0 125,5 229,-39 104,-44 186,-106 116,-256 -70,-150 -311,-186 -311,-186 0,0 157,140 130,266 -27,126 -225,169 -225,169z"/>
  <path class="fil3" d="M1116 908c0,0 -60,167 43,256 104,89 306,77 306,77 0,0 11,17 -7,29 -18,12 -141,25 -207,110 -66,85 -321,178 -382,-64 -60,-242 246,-408 246,-408z"/>
  <path class="fil3" d="M2050 908c0,0 60,167 -43,256 -104,89 -306,77 -306,77 0,0 -11,17 7,29 18,12 141,25 207,110 66,85 321,178 382,-64 60,-242 -246,-408 -246,-408z"/>
  <polygon class="fil4" points="1582,1464 1623,1588 1753,1588 1647,1664 1688,1788 1582,1711 1477,1788 1518,1664 1412,1588 1542,1588 "/>
  <path class="fil3" d="M1590 1427c0,0 -200,13 -239,194 -39,181 10,280 -116,358 -125,77 -248,22 -265,-31 -17,-53 16,-138 75,-126 59,12 90,73 124,79 34,6 57,-37 55,-110 -2,-73 22,-238 124,-329 97,-86 229,-86 241,-86 12,0 144,0 241,86 102,90 126,256 124,329 -2,73 21,116 55,110 34,-6 65,-66 124,-79 59,-12 92,73 75,126 -17,53 -140,109 -265,31 -125,-77 -77,-176 -116,-358 -39,-181 -238,-194 -238,-194z"/>
  <path class="fil4" d="M1398 925c0,0 0,86 43,139 43,53 117,71 117,71 0,0 42,-224 -160,-210z"/>
  <path class="fil4" d="M1768 925c0,0 0,86 -43,139 -43,53 -117,71 -117,71 0,0 -42,-224 160,-210z"/>
  <path class="fil4" d="M1459 892c0,0 60,16 88,43 24,24 34,48 37,55l0 1 0 -1c3,-7 13,-31 37,-55 28,-28 88,-43 88,-43 -7,-23 -29,-50 -57,-76 -14,-13 -31,-36 -44,-56 -13,-20 -23,-36 -23,-36l-1 -1 -1 1c0,0 -40,65 -68,92 -28,27 -49,53 -57,76z"/>
  <path class="fil4" d="M1253 1991c0,0 -110,286 -13,372 98,85 212,36 242,-4 31,-40 60,-178 60,-178l78 212 121 -2 49 -203 67 181 110 -44 -123 -346 -136 22 -40 183 -71 -176 -137 2 -54 259c0,0 -18,41 -58,35 -40,-5 -38,-45 -35,-63 3,-17 53,-228 53,-228l-114 -24z"/>
  <path class="fil5" d="M1196 2876c-15,-6 -24,-10 -30,-12 -6,-3 -16,-6 -29,-11l67 -141c1,-2 2,-3 2,-5 7,-16 9,-29 7,-39 -2,-10 -6,-19 -14,-26 -8,-8 -18,-14 -30,-19 -8,-3 -15,-5 -23,-6 -6,-1 -12,-1 -18,0 -5,1 -9,2 -13,3 -5,2 -9,5 -13,9 -4,3 -8,8 -11,13 -5,8 -13,22 -22,42l-29 61c-8,18 -17,38 -26,59 -14,-6 -25,-10 -32,-13l-28 -11 41 -84 32 -67c8,-16 14,-27 20,-34 5,-6 10,-11 16,-15 6,-4 12,-6 18,-8 8,-3 18,-4 28,-4 11,0 22,1 34,3 16,3 31,8 47,14 16,6 30,14 43,22 11,7 20,15 28,24 8,9 14,18 17,26 3,7 4,15 4,23 0,10 -2,20 -7,30 -1,4 -3,8 -6,14 -3,6 -6,13 -10,21l-12 25c-4,8 -9,19 -16,34l-18 38c-5,10 -10,22 -16,35zm-185 -362c-17,16 -34,35 -54,57l-63 71c-23,26 -43,49 -59,70 -12,-10 -23,-19 -31,-26 -6,-5 -16,-13 -28,-22 4,-29 8,-69 13,-118 5,-49 9,-89 13,-120l-119 135c-3,3 -7,9 -14,17 -10,-8 -17,-14 -22,-19 -2,-2 -10,-8 -23,-18l49 -52 81 -90 47 -54c11,9 20,17 28,23 6,5 16,13 30,24 -2,13 -3,23 -4,30 -1,10 -3,31 -5,63 -2,21 -4,48 -7,81 -2,24 -5,45 -7,62 14,-16 40,-45 77,-87 15,-17 33,-38 53,-62 10,8 17,14 21,18 4,3 11,9 24,19zm-246 -218c-36,26 -73,53 -110,82 -37,28 -65,50 -84,66l-16 13 -22 -27c-1,-1 -8,-9 -20,-24 56,-39 125,-93 209,-162l19 23c3,4 11,13 23,27zm-120 -161l-18 19c-2,2 -11,12 -26,30l-74 87 -66 78c-7,-12 -12,-23 -17,-31 -3,-5 -8,-14 -15,-26l16 -16c3,-3 7,-8 13,-14l100 -112c7,-7 15,-16 26,-28l-26 2c-6,0 -19,1 -38,2l-143 5c-4,0 -9,0 -13,1 -5,0 -12,1 -22,2 -7,-13 -12,-23 -16,-30 -2,-4 -8,-13 -16,-28l36 0 237 -3 27 -1c8,16 14,26 17,31 3,5 9,16 19,33zm-107 -196l-74 10 -85 14 -77 14 -26 5c-7,-33 -14,-67 -22,-103l-8 -38 -13 -58 41 -6 3 19c1,5 2,13 4,22 2,9 4,19 6,28 4,21 7,34 9,40 1,6 4,15 7,27l68 -11c-4,-18 -7,-37 -11,-55 -3,-13 -8,-34 -15,-65 12,-1 26,-3 42,-6 7,36 11,56 12,61 3,16 8,35 14,59l71 -12 -5 -22c-1,-6 -5,-21 -10,-44l-10 -43 -7 -29c15,-2 29,-4 42,-6 7,35 14,66 20,94l14 66 9 40zm-50 -250c-38,-3 -83,-6 -133,-7 -50,-1 -94,-1 -132,-1 0,-16 0,-30 0,-41 0,-12 -1,-24 -1,-35 -1,-11 -1,-23 -1,-36 0,-16 0,-30 2,-43 1,-13 5,-24 11,-33 6,-10 13,-17 22,-22 9,-5 19,-7 30,-8 7,0 14,1 21,2 7,2 13,4 18,8 6,3 11,7 15,12 4,5 8,9 10,14 3,5 5,10 7,16 2,6 4,14 7,24l25 -14c8,-5 22,-13 43,-26l34 -21c2,-1 8,-5 17,-10 0,17 0,28 0,33 0,7 0,18 1,35l-51 24c-8,4 -17,9 -28,15l-47 26c-4,3 -11,6 -20,11 1,-9 2,-18 2,-25 0,-12 -2,-22 -6,-32 -4,-10 -9,-17 -17,-22 -8,-5 -16,-7 -25,-7 -5,0 -10,1 -15,4 -5,2 -8,6 -12,12 -3,5 -5,12 -6,19 -1,7 -1,15 -1,22 0,4 0,10 0,17 0,7 0,16 1,26l80 2 145 1 0 32c0,5 0,15 1,31zm-5 -259c-19,-3 -35,-5 -48,-7 17,-24 28,-46 33,-67 2,-9 3,-17 2,-25 -1,-8 -3,-14 -7,-19 -4,-5 -8,-8 -14,-9 -4,-1 -8,-1 -12,0 -5,2 -11,5 -17,9 -9,6 -23,17 -44,33 -10,8 -17,13 -21,16 -9,6 -17,11 -24,14 -7,3 -13,5 -19,5 -6,1 -12,0 -19,-1 -12,-3 -22,-9 -31,-18 -9,-9 -14,-22 -17,-37 -3,-15 -2,-33 3,-55 4,-19 12,-40 21,-63 13,2 28,4 46,6 -12,19 -21,37 -25,55 -3,13 -3,24 1,34 4,10 9,15 17,17 2,0 4,1 7,1 2,0 5,0 7,-1 2,-1 6,-2 10,-4 4,-2 9,-6 15,-10 6,-5 11,-9 14,-12l27 -20c6,-5 12,-10 18,-13 6,-4 11,-7 16,-10 5,-3 10,-4 14,-5 4,-1 9,-2 13,-2 4,0 9,0 13,1 11,2 20,7 28,15 8,7 14,17 18,28 4,11 6,23 5,35 0,12 -2,25 -5,38 -2,9 -5,18 -9,29 -4,11 -10,25 -18,43zm62 -215c-40,-20 -81,-39 -124,-59 -42,-19 -75,-34 -98,-43l-19 -8 13 -32c1,-2 4,-11 11,-29 61,31 141,67 241,109l-12 28c-2,5 -6,16 -13,33zm72 -169l-47 -32 -71 -46 -70 -44 -7 12 -6 12 -6 11 -23 42c-16,-10 -27,-18 -36,-23 20,-34 41,-70 62,-107l37 -64 19 -34c15,10 27,18 36,23 -13,21 -26,41 -37,61l-8 14 29 20 115 73 20 12c8,5 17,10 25,15l-16 27c-2,3 -7,13 -16,29zm69 -132c-6,-27 -14,-60 -23,-98l-27 -108c-8,-34 -16,-62 -23,-86 13,-12 22,-20 28,-25 10,-9 19,-18 28,-26l75 38 158 76 21 10 -23 21c-5,5 -14,13 -26,25 -10,-6 -25,-14 -43,-23 -18,-9 -34,-17 -45,-22l-79 74c9,33 19,67 30,100l-25 22c-5,4 -13,12 -26,24zm6 -189l57 -54 -84 -43 10 35 17 62zm247 -51c-10,-17 -20,-30 -27,-40 29,-3 53,-10 72,-20 8,-4 14,-9 20,-15 5,-6 9,-12 10,-17 1,-6 0,-11 -3,-16 -2,-4 -5,-7 -8,-9 -5,-3 -11,-5 -19,-7 -10,-2 -28,-6 -53,-10 -12,-2 -21,-4 -25,-5 -11,-3 -19,-5 -26,-8 -7,-3 -12,-7 -17,-11 -4,-4 -8,-9 -12,-15 -6,-11 -8,-22 -7,-35 1,-13 6,-25 16,-37 10,-12 24,-23 43,-34 17,-9 37,-18 61,-26 7,11 16,24 26,38 -22,4 -41,10 -57,18 -12,6 -20,14 -25,23 -5,9 -5,17 -1,24 1,2 2,4 4,5 2,2 3,3 5,4 2,1 5,3 10,4 4,2 10,3 18,4 7,1 14,2 19,2l33 7c8,1 15,3 22,5 7,2 13,4 18,6 5,2 10,4 13,7 4,3 7,5 10,9 3,3 6,7 8,11 5,9 8,20 8,31 0,11 -3,22 -9,32 -6,10 -13,19 -22,27 -9,8 -20,15 -31,21 -8,4 -17,9 -28,13 -11,4 -26,9 -44,15zm294 -145c-1,-23 -4,-49 -8,-78l-12 -94c-4,-34 -9,-64 -13,-91 16,-2 29,-5 40,-7 8,-1 20,-4 35,-7 20,22 46,51 80,87 34,36 61,65 82,89l-24 -178c-1,-4 -2,-11 -4,-21 13,-2 22,-4 29,-5 3,0 12,-2 28,-5l7 71 15 121 10 71c-14,2 -26,4 -36,6 -8,1 -21,4 -38,7 -9,-10 -15,-18 -20,-22 -7,-7 -22,-23 -44,-46 -15,-15 -34,-35 -56,-58 -17,-18 -31,-33 -43,-46 3,21 8,59 15,115 3,23 7,50 12,81 -13,2 -22,3 -27,4 -4,1 -14,3 -30,6zm326 -46l11 -73 10 -85 8 -78 2 -26c34,3 69,5 105,8l39 3 59 4 -5 42 -19 -2c-5,-1 -13,-1 -22,-2 -9,-1 -19,-2 -29,-2 -21,-1 -35,-2 -41,-3 -6,0 -16,-1 -28,-1l-8 68c19,2 37,3 56,5 13,1 35,2 66,3 -2,12 -4,26 -6,42 -36,-3 -57,-5 -62,-5 -16,-1 -36,-2 -60,-3l-8 72 22 2c7,0 22,1 45,3l44 2 30 1c-2,15 -4,29 -6,42 -35,-3 -67,-5 -96,-7l-67 -5 -40 -3zm464 -64c18,7 34,14 50,20 21,8 39,15 53,20 -19,39 -38,83 -59,132 -23,-4 -43,-9 -61,-14 -18,-5 -33,-10 -45,-14 -22,-9 -42,-19 -60,-31 -17,-12 -31,-25 -40,-40 -9,-15 -15,-32 -15,-51 -1,-19 2,-38 9,-56 6,-16 14,-30 25,-42 11,-12 23,-23 38,-31 15,-8 31,-13 48,-16 17,-3 35,-2 52,1 17,3 35,8 53,15 25,10 52,24 82,42 -5,14 -10,28 -14,44 -26,-21 -52,-36 -76,-46 -16,-6 -31,-10 -47,-11 -16,-1 -30,1 -44,6 -14,5 -25,13 -36,24 -10,11 -18,24 -24,37 -6,16 -8,31 -7,45 1,15 8,28 20,40 12,12 27,22 45,29 7,3 15,5 25,7 10,2 20,4 31,5l27 -62 -15 -6c-9,-3 -19,-7 -33,-12 7,-16 13,-28 16,-36zm87 207l47 -57 53 -68 47 -62 15 -22c27,20 56,40 86,61l32 22 49 34 -26 33 -15 -12c-4,-3 -10,-8 -18,-13 -8,-6 -15,-11 -24,-17 -17,-12 -29,-20 -34,-24 -5,-4 -13,-9 -23,-16l-42 54c15,11 30,22 46,33 11,8 29,20 55,37 -8,9 -16,20 -27,33 -30,-21 -47,-33 -51,-36 -13,-9 -30,-20 -50,-34l-44 57 18 13c5,4 18,12 37,26l37 25 25 16c-10,11 -19,22 -27,33 -29,-21 -55,-39 -79,-55l-55 -38 -33 -23zm210 151c32,-22 67,-49 106,-80 39,-31 73,-59 101,-84 11,13 19,23 27,31 8,9 16,18 23,26 8,8 16,17 24,27 10,12 19,23 26,34 7,11 11,21 13,33 2,11 1,22 -2,31 -3,9 -9,18 -18,25 -5,5 -11,9 -17,12 -6,3 -12,5 -19,6 -7,1 -13,1 -20,1 -6,-1 -12,-2 -17,-4 -5,-2 -10,-5 -15,-8 -5,-3 -12,-8 -21,-14l-10 27c-3,9 -9,25 -16,48l-12 38c-1,2 -3,8 -7,19 -11,-13 -18,-21 -21,-25 -4,-5 -12,-14 -23,-26l24 -51c3,-8 7,-18 12,-29l19 -50c2,-5 4,-12 8,-21 5,8 10,15 15,20 8,9 16,16 25,21 9,5 18,7 27,6 9,-1 17,-4 24,-10 4,-4 7,-8 9,-12 2,-5 2,-10 1,-16 -1,-6 -4,-12 -8,-18 -4,-6 -9,-12 -14,-18 -3,-3 -6,-7 -11,-13 -5,-5 -11,-12 -17,-20l-62 49 -112 92 -21 -24c-3,-4 -10,-12 -21,-23zm165 209c40,-19 81,-40 122,-61 41,-21 73,-38 94,-51l18 -11 17 30c1,2 6,11 16,27 -62,29 -140,70 -234,123l-15 -26c-3,-4 -9,-15 -18,-31zm107 195l44 -5 153 -21 66 -10c4,19 7,33 9,42 2,7 5,20 9,38 -10,4 -17,8 -21,10 -4,2 -10,6 -19,11 -9,5 -19,12 -32,20 -19,12 -37,23 -56,33l-50 28 75 11 99 18c3,1 7,1 11,2 4,0 12,1 23,2 3,16 7,30 9,42 2,8 5,21 10,39 -37,7 -77,14 -121,24 -44,9 -77,16 -98,21 -10,2 -23,6 -39,9 -3,-13 -5,-22 -6,-27 -2,-7 -4,-16 -7,-28 13,-2 24,-4 32,-6l113 -22c16,-3 32,-7 47,-10l15 -4 -200 -31 -24 -3c-3,-13 -5,-22 -6,-27 -1,-6 -4,-15 -7,-28l108 -61c4,-2 12,-7 24,-14l36 -21c3,-2 6,-4 8,-5 2,-1 7,-4 15,-7l-25 3c-8,1 -21,3 -39,6l-119 19c-6,1 -14,3 -26,5l-6 -26c-1,-4 -3,-13 -6,-26zm80 333c22,17 49,37 81,60l90 65c28,20 52,37 73,51 -2,18 -4,30 -5,37 -2,13 -3,26 -4,38l-82 19 -170 43 -22 6 4 -31c1,-7 2,-19 4,-36 12,-2 28,-5 48,-10 20,-5 37,-9 49,-12l13 -107c-29,-20 -58,-39 -87,-58l4 -33c1,-6 2,-18 4,-35zm117 149l-10 78 93 -21 -30 -20 -53 -36zm-167 202c35,18 74,36 118,56 44,19 85,37 124,52 -5,13 -10,24 -13,32 -2,6 -6,15 -10,28 -21,-10 -45,-21 -72,-33l-71 -32c-20,-9 -41,-18 -61,-26l-13 33c-12,31 -20,51 -23,61 -4,10 -7,19 -10,29 -11,-6 -24,-12 -38,-18 13,-33 24,-62 33,-86l23 -60 14 -36zm-61 182c11,25 26,56 43,91l49 100c15,31 29,57 40,79 -10,14 -18,25 -22,31 -7,11 -15,21 -22,31l-82 -21 -171 -42 -22 -5 18 -25c4,-6 11,-16 20,-30 11,4 27,9 47,14 20,5 36,10 49,13l62 -88c-16,-31 -33,-61 -50,-92l19 -27c4,-5 10,-15 20,-29zm33 186l-45 64 92 25 -17 -32 -30 -57zm-243 101c13,20 27,41 44,64l56 77c20,28 39,52 56,73 -13,10 -23,18 -32,25 -6,5 -16,13 -28,23 -28,-10 -65,-22 -112,-37 -47,-15 -85,-27 -115,-38l107 144c3,3 7,9 13,17 -10,8 -18,14 -23,18 -2,2 -9,8 -22,18l-41 -58 -71 -98 -43 -57c11,-9 21,-16 28,-23 6,-5 16,-13 30,-25 13,5 22,8 28,10 10,3 30,9 61,18 20,6 46,14 77,24 23,7 43,14 60,19 -12,-17 -35,-48 -69,-94 -14,-18 -30,-40 -50,-65 10,-8 17,-14 22,-17 4,-3 11,-9 23,-19zm-354 400c-18,7 -34,13 -50,20 -21,8 -38,16 -52,21 -13,-41 -28,-87 -47,-136 19,-12 37,-23 54,-31 16,-9 30,-15 42,-20 22,-9 44,-15 65,-18 21,-3 40,-3 57,2 17,5 32,14 46,27 14,13 24,29 31,47 6,15 10,31 10,48 1,16 -2,33 -7,49 -5,16 -13,31 -24,45 -11,14 -24,25 -39,35 -15,9 -31,18 -49,25 -25,10 -54,18 -89,25 -6,-14 -12,-28 -19,-42 34,-3 63,-9 87,-18 16,-6 29,-14 42,-24 12,-10 22,-21 28,-34 6,-13 10,-27 10,-42 0,-15 -3,-30 -8,-43 -6,-15 -15,-28 -26,-38 -11,-10 -25,-15 -42,-16 -17,-1 -35,2 -53,10 -7,3 -14,6 -23,11 -9,5 -17,11 -26,17l22 64 15 -6c9,-3 19,-8 32,-14 5,17 10,29 13,37z"/>
 </g>
</svg>
